<svg xmlns="http://www.w3.org/2000/svg" xmlns:xlink="http://www.w3.org/1999/xlink" width="423.837" height="34.701" viewBox="0 0 423.837 34.701">
  <defs>
    <clipPath id="clip-path">
      <rect id="Rectangle_175" data-name="Rectangle 175" width="423.837" height="34.701" fill="none"/>
    </clipPath>
  </defs>
  <g id="Group_827" data-name="Group 827" transform="translate(0 0)">
    <g id="Group_822" data-name="Group 822" transform="translate(0 0)" clip-path="url(#clip-path)">
      <path id="Path_672" data-name="Path 672" d="M48.893,15.294V31.209a95.479,95.479,0,0,1-22.857,3.255C10.2,34.464,0,31.021,0,17.232,0,4.7,7.13,0,26.036,0A115.012,115.012,0,0,1,46.579,1.919v9.312a146.833,146.833,0,0,0-20.543-1.9c-6.471,0-14.862-.658-14.862,7.9,0,6.4,4.421,7.92,14.862,7.92a95.837,95.837,0,0,0,9.594-.489V21.389c-2.2.056-4.421.094-6.641.15.019-2.088.019-4.157.038-6.246Z" transform="translate(0 -0.001)" fill="#000"/>
      <path id="Path_673" data-name="Path 673" d="M77.454,17.4c0,13.043-11.878,16.858-23.752,16.858S29.948,30.447,29.948,17.4V.5H41.124v13.74c0,7.687,3.45,10.71,12.578,10.71s12.572-3.023,12.572-10.71V.5h11.18Z" transform="translate(26.391 0.438)" fill="#000"/>
      <path id="Path_674" data-name="Path 674" d="M59.28.934C65.377.422,71.48,0,77.208,0c16.95,0,30.506,3.493,30.506,17.234S94.158,34.471,77.208,34.471c-5.728,0-11.831-.421-17.928-.933ZM70.454,24.78c14.391.465,26.083-.606,26.083-7.546,0-7.216-11.737-8.149-26.083-7.593Z" transform="translate(52.239 0)" fill="#000"/>
      <rect id="Rectangle_174" data-name="Rectangle 174" width="11.18" height="32.602" transform="translate(192.391 0.935)" fill="#000"/>
      <path id="Path_675" data-name="Path 675" d="M112.4.934C118.5.422,124.6,0,130.327,0c16.95,0,30.506,3.493,30.506,17.234s-13.556,17.236-30.506,17.236c-5.728,0-11.831-.421-17.928-.933ZM123.573,24.78c14.391.465,26.083-.606,26.083-7.546,0-7.216-11.737-8.149-26.083-7.593Z" transform="translate(99.048 0)" fill="#000"/>
      <path id="Path_676" data-name="Path 676" d="M141.979.5h41.916V8.98H153.154V13.14h28.41v7.331h-28.41v4.1h30.741V33.1H141.979Z" transform="translate(125.115 0.438)" fill="#000"/>
      <path id="Path_677" data-name="Path 677" d="M184.7.5h19.1l17.234,32.6H208.915l-1.906-3.631H181.487L179.577,33.1H167.468Zm17.371,19.653L196.621,9.812h-4.75l-5.448,10.339Z" transform="translate(147.576 0.438)" fill="#000"/>
      <path id="Path_678" data-name="Path 678" d="M245.176,11.461c-3.539-1.119-10.433-2.839-22.492-2.839-3.915,0-13.507.557-13.507,3.074,0,1.3,2.1,1.349,5.123,1.349h20.914c9.265,0,14.019,3.166,14.019,9.318,0,7.544-9.269,12.109-27.3,12.109-8.849,0-18.112-1.354-22.306-2.566V22.592c3.538,1.119,7.916,2.8,22.584,2.8,12.856,0,16.073-1.4,16.073-2.8,0-.927-1.119-1.163-3.729-1.163H211.275c-9.782,0-13.135-4.378-13.135-9.271C198.14,4.38,206.662,0,223.568,0a91.068,91.068,0,0,1,21.608,2.566Z" transform="translate(174.605 0.001)" fill="#000"/>
    </g>
  </g>
</svg>
