<svg version="1.2" xmlns="http://www.w3.org/2000/svg" viewBox="0 0 1000 1000" width="1000" height="1000">
	<title>6330888</title>
	<style>
		.s0 { opacity: .7;fill: #a5d327 } 
		.s1 { fill: #000000 } 
		.s2 { fill: #b3b3b3 } 
		.s3 { fill: #92e3a9 } 
		.s4 { fill: #bbff00;stroke: #263238;stroke-miterlimit:10;stroke-width: 2 } 
		.s5 { fill: #dedede;stroke: #263238;stroke-miterlimit:10;stroke-width: 2 } 
		.s6 { fill: #ffffff;stroke: #263238;stroke-miterlimit:10;stroke-width: 2 } 
		.s7 { fill: none;stroke: #263238;stroke-miterlimit:10;stroke-width: 2 } 
		.s8 { fill: #ababab;stroke: #263238;stroke-miterlimit:10;stroke-width: 2 } 
		.s9 { fill: #263238;stroke: #263238;stroke-miterlimit:10;stroke-width: 2 } 
		.s10 { fill: #263238 } 
	</style>
	<g id="Background Simple">
		<g id="&lt;Group&gt;">
			<path id="&lt;Path&gt;" class="s0" d="m903.3 233.9q-5-8.4-10.5-16.4c-48.5-71.4-129.3-120.2-207.9-142.3-34.4-9.7-69.8-14.8-105-16.1-231.4-8.4-316.4 182.3-390.9 231.5-74.6 49.2-188.9 133.2-174.6 309.7 10.9 134.2 87.2 262.5 226.6 320.9 15.4 6.4 31.5 12 48.4 16.7 31.4 8.6 65.5 14 102.2 15.7 105.4 4.7 191-20.7 274.7-84.7 19.5-14.9 38.8-31.7 64.1-33.5 18.3-1.3 35.7 5.2 16.5 23-22.5 20.8 3.5 61.8 60.7 33.4 95.7-47.6 135-150.3 153.5-254.7 22.8-128.1 11.7-287.5-57.8-403.2z"/>
		</g>
	</g>
	<g id="Space">
		<path id="&lt;Path&gt;" class="s1" d="m411.4 921.1c-7.4 0-15.1-0.2-22.8-0.5-33.3-1.5-65.3-6.4-95-14.6-15.2-4.2-30-9.3-44.1-15.2-117.3-49.1-193.7-157.8-204.5-290.7-5.6-68.5 9.6-126.1 46.3-176.2 31-42.2 72.4-72.5 112.4-99 26.2-17.2 49.5-43.3 76.5-73.5 63.5-71.1 142.6-159.5 287.1-159.5 4.4 0 8.9 0 13.4 0.2 34.1 1.3 66.8 6.2 97.3 14.8 78.3 22.1 148.5 69.8 187.8 127.6 3.2 4.6 6.3 9.5 9.4 14.6 69.3 115.5 73.1 274.3 53.6 384.5-19.4 109.1-55.2 178.7-111.9 216.4-0.9-5-2.2-9.1-3.3-12-10-25.6-35.9-40.9-69.4-40.9-2.8 0-5.6 0.1-8.5 0.3-39.5 2.9-68.3 25.1-89.3 41.4q-2.7 2.1-5.3 4.1c-70.8 54.1-141.6 78.2-229.7 78.2z"/>
	</g>
	<g id="Stars">
		<path id="&lt;Path&gt;" class="s2" d="m734.5 201.7c0 5.2-4.3 9.4-9.4 9.4-5.2 0-9.4-4.2-9.4-9.4 0-5.1 4.2-9.3 9.4-9.3 5.1 0 9.4 4.2 9.4 9.3z"/>
		<path id="&lt;Path&gt;" class="s2" d="m891.5 360.5c0 5.2-4.2 9.4-9.4 9.4-5.1 0-9.3-4.2-9.3-9.4 0-5.2 4.2-9.4 9.3-9.4 5.2 0 9.4 4.2 9.4 9.4z"/>
		<path id="&lt;Path&gt;" class="s2" d="m243 805.2c0 5.2-4.2 9.4-9.4 9.4-5.2 0-9.4-4.2-9.4-9.4 0-5.2 4.2-9.4 9.4-9.4 5.2 0 9.4 4.2 9.4 9.4z"/>
		<path id="&lt;Path&gt;" class="s2" d="m814.3 797.1c0 5.1-4.2 9.3-9.3 9.3-5.2 0-9.4-4.2-9.4-9.3 0-5.2 4.2-9.4 9.4-9.4 5.1 0 9.3 4.2 9.3 9.4z"/>
		<path id="&lt;Path&gt;" class="s2" d="m497 120c0 3-2.4 5.4-5.4 5.4-2.9 0-5.3-2.4-5.3-5.4 0-2.9 2.4-5.3 5.3-5.3 3 0 5.4 2.4 5.4 5.3z"/>
		<path id="&lt;Path&gt;" class="s2" d="m133.4 443.7c0 5.1-4.2 9.3-9.4 9.3-5.2 0-9.4-4.2-9.4-9.3 0-5.2 4.2-9.4 9.4-9.4 5.2 0 9.4 4.2 9.4 9.4z"/>
		<path id="&lt;Path&gt;" class="s2" d="m805.1 208.7c0 2.6-2 4.7-4.6 4.7-2.6 0-4.7-2.1-4.7-4.7 0-2.5 2.1-4.6 4.7-4.6 2.6 0 4.6 2.1 4.6 4.6z"/>
		<path id="&lt;Path&gt;" class="s3" d="m178.5 742.5c0 2.6-2 4.7-4.6 4.7-2.6 0-4.7-2.1-4.7-4.7 0-2.5 2.1-4.6 4.7-4.6 2.6 0 4.6 2.1 4.6 4.6z"/>
		<path id="&lt;Path&gt;" class="s3" d="m865.9 704.2c0 2.5-2.1 4.6-4.7 4.6-2.6 0-4.6-2.1-4.6-4.6 0-2.6 2-4.7 4.6-4.7 2.6 0 4.7 2.1 4.7 4.7z"/>
		<path id="&lt;Path&gt;" class="s3" d="m432.5 832.6c0 2.6-2.1 4.7-4.7 4.7-2.5 0-4.6-2.1-4.6-4.7 0-2.5 2.1-4.6 4.6-4.6 2.6 0 4.7 2.1 4.7 4.6z"/>
		<path id="&lt;Path&gt;" class="s2" d="m193.9 668.3c0 2.6-2.1 4.7-4.7 4.7-2.5 0-4.6-2.1-4.6-4.7 0-2.5 2.1-4.6 4.6-4.6 2.6 0 4.7 2.1 4.7 4.6z"/>
		<path id="&lt;Path&gt;" class="s2" d="m386.7 891.6c0 2.5-2.1 4.6-4.6 4.6-2.6 0-4.7-2.1-4.7-4.6 0-2.6 2.1-4.7 4.7-4.7 2.5 0 4.6 2.1 4.6 4.7z"/>
		<path id="&lt;Path&gt;" class="s3" d="m654.8 141.4c0 2.5-2.1 4.6-4.6 4.6-2.6 0-4.7-2.1-4.7-4.6 0-2.6 2.1-4.7 4.7-4.7 2.5 0 4.6 2.1 4.6 4.7z"/>
		<path id="&lt;Path&gt;" class="s2" d="m662.9 650.4c0 2.6-2.1 4.7-4.7 4.7-2.6 0-4.7-2.1-4.7-4.7 0-2.5 2.1-4.6 4.7-4.6 2.6 0 4.7 2.1 4.7 4.6z"/>
		<path id="&lt;Path&gt;" class="s2" d="m876.6 469.5c0 2.5-2.1 4.6-4.6 4.6-2.6 0-4.7-2.1-4.7-4.6 0-2.6 2.1-4.7 4.7-4.7 2.5 0 4.6 2.1 4.6 4.7z"/>
		<path id="&lt;Path&gt;" class="s3" d="m119.3 647.9c0 2.5-2.1 4.6-4.6 4.6-2.6 0-4.7-2.1-4.7-4.6 0-2.6 2.1-4.7 4.7-4.7 2.5 0 4.6 2.1 4.6 4.7z"/>
		<path id="&lt;Path&gt;" class="s2" d="m534.1 858.9c0 2.6-2.1 4.7-4.6 4.7-2.6 0-4.7-2.1-4.7-4.7 0-2.6 2.1-4.6 4.7-4.6 2.5 0 4.6 2 4.6 4.6z"/>
		<path id="&lt;Path&gt;" class="s3" d="m365.3 677.3c0 2.6-2.1 4.6-4.7 4.6-2.5 0-4.6-2-4.6-4.6 0-2.6 2.1-4.7 4.6-4.7 2.6 0 4.7 2.1 4.7 4.7z"/>
		<path id="&lt;Path&gt;" class="s3" d="m671 301.2c0 2.6-2.1 4.7-4.7 4.7-2.5 0-4.6-2.1-4.6-4.7 0-2.5 2.1-4.6 4.6-4.6 2.6 0 4.7 2.1 4.7 4.6z"/>
	</g>
	<g id="Text">
		<path id="&lt;Compound Path&gt;" fill-rule="evenodd" class="s4" d="m243.6 677.8v-98.2h-119.3v-58.2l104.1-243h79.3v247h41v54.2h-41v98.2zm-62.1-152.4h62.1v-173.6zm307.2 158.3q-35 0-57.9-14.8-22.9-14.8-34.5-40.9-11.6-26.1-11.6-60.2v-177q0-35 11.1-61.4 11.1-26.3 34-41.1 22.9-14.8 58.9-14.8 36 0 58.9 14.8 23 14.8 34.1 41.1 11.1 26.4 11.1 61.4v177q0 34.1-11.6 60.2-11.6 26.1-34.5 40.9-23 14.8-58 14.8zm0-58.7q15.3 0 22.7-9.3 7.4-9.4 9.9-22.7 2.4-13.3 2.4-26.2v-175q0-13.8-2.2-27.4-2.2-13.5-9.6-22.9-7.4-9.4-23.2-9.4-15.8 0-23.2 9.4-7.3 9.4-9.6 22.9-2.2 13.6-2.2 27.4v175q0 12.9 2.7 26.2 2.7 13.3 10.1 22.7 7.4 9.3 22.2 9.3zm266.8 52.8v-98.1h-119.4v-58.2l104.1-243.1h79.4v247h40.9v54.3h-40.9v98.1zm-62.2-152.4h62.2v-173.5z"/>
	</g>
	<g id="Shadow">
		<g id="&lt;Group&gt;" style="opacity: .3">
			<path id="&lt;Path&gt;" class="s1" d="m641.4 570.3q0.1 0.1 0.3 0.2 0.5 0.4 1.1 0.8 0.1 0.1 0.3 0.1 0.5 0.3 1.1 0.6 0.2 0.1 0.4 0.1 0.7 0.3 1.6 0.6 0.2 0 0.3 0 0.8 0.2 1.7 0.3 0.2 0.1 0.5 0.1 1.1 0.1 2.3 0.2 0 0 0 0c2.7 0.1 5.5-0.4 8.2-1.5q2.1-0.8 4-2.1 1.3-0.8 2.6-1.7 0.6-0.5 1.2-1.1 1.2-1 2.3-2.2c6.6-7.3 10.5-18.6 7.3-32q-1.2-5-2.6-9.4-2.3-7.6-5-13.7-0.7-1.7-1.5-3.2-1.8-3.6-3.8-6.7-1.3-2.1-2.7-3.9-3.5-4.5-7.5-7.4-1-0.7-2-1.3-0.3-0.2-0.5-0.3l-14.9 34.6v38.5c1.4 4 2.4 7.5 4.9 10q0 0 0 0 0.2 0.2 0.4 0.4z"/>
			<path id="&lt;Compound Path&gt;" fill-rule="evenodd" class="s1" d="m558.9 559.5q-0.6 0.1-1.2 0.2c-0.3 2.4-0.8 4.7-1.4 6.6-3.2 9.8-15.6 19.7-22.8 18q-0.8-0.2-1.5-0.4-0.2 0-0.5-0.1-0.6-0.1-1.2-0.3-0.1 0-0.3-0.1-0.7-0.2-1.3-0.4-0.1-0.1-0.2-0.1-0.6-0.2-1-0.5-0.2-0.1-0.3-0.1-0.6-0.4-1-0.8 0 0-0.1 0-0.4-0.4-0.8-1-0.1-0.1-0.2-0.2-0.3-0.5-0.6-1-0.1-0.2-0.2-0.3-0.3-0.8-0.6-1.7 0 0 0 0 0 0 0 0-0.2-0.7-0.3-1.6c0.2-3 0.3-5.9 0.3-8.9v-175q0-13.8-2.2-27.4-2.2-13.6-9.6-22.9-7.4-9.4-23.2-9.4-15.8 0-23.2 9.4-7.4 9.3-9.6 22.9-2.2 13.6-2.2 27.4v166.9c-13.1-3-25.8-12.6-33.3-30.3-9.6-22.8-8-45.9-6.7-55.2-4-4.2-1.7-12.4-1.7-12.4-3-5.1-4.2-20.7-4.6-27.6q-0.6-0.6-1.2-1.2c-5.7-4-14.4-14.4-21.5-23.7v-17.5q0-35 11.1-61.4 11-26.4 34-41.2 8.9-5.7 19.9-9.3 0.2 4.1-0.1 8.1 0.4 2.1 0.7 4.3 0.1 1.1 0.2 2.3 2.2-0.4 4.5-0.6c6.3-0.7 14-0.2 21.6 1.8 2.5-1.1 5.1-1.9 7.9-2.2 4.6-0.5 9.1 0.3 13.2 2 4.8-0.2 10.2-0.3 16.2-0.1 17.7 0.4 30.6 2.6 36.8 3.9 2.2 0 4.3 0.3 6.6 0.9 2.4 0.6 4.7 1.6 6.8 2.7 7.2 7.7 13.1 16.9 17.5 27.4q1.5 3.6 2.8 7.4c-0.7 4.3-2.5 8.2-5 11.1-3.6 4-7.2 6.5-9.9 8.1-0.3 3-1.1 5.6-1.9 7.2-1.6 2.9-4.8 5.5-7.4 7.3q-0.2 1.3-0.5 2.8c-1.5 7.1-3.5 11.3-6.9 11.6-0.2 0.1-0.4 0-0.6 0 8.3 10.9 15.7 26.4 16.7 39.7 9 8.5 14.7 21 14.9 34.8 4 15.6 3.7 30 3.6 32.2q2.4-0.1 5.3-0.3v68.6c-14.2 2.8-27.5 0.9-33.8-0.4zm-12-181.8q-0.1 0.4-0.1 0.8 0 0.1 0 0.1c0-0.2 0.1-0.6 0.1-0.9zm1-7.1h-0.1q-0.2 1.5-0.3 3 0.2-1.4 0.4-3z"/>
			<path id="&lt;Path&gt;" class="s1" d="m307.7 414.5c-2.5 6.5-4.8 12.3-6 15.5-3.7 10.4-7.5 22-7.4 28.7 0.1 6.7 4.2 15.3 7.4 15.5 3.2 0.3 5.6-1.8 6-6.3z"/>
		</g>
	</g>
	<g id="Character">
		<g id="&lt;Group&gt;">
			<g id="&lt;Group&gt;">
				<path id="&lt;Path&gt;" class="s5" d="m538.3 434.4c0 0 1.9 14.9 1.8 30.1-0.1 15.2 3.5 15.6 10.7 17.2 7.3 1.7 19.6-8.1 22.8-18 3.2-9.9 2.9-28.9 2.9-28.9z"/>
				<path id="&lt;Path&gt;" class="s5" d="m571.3 452.7c-0.3 6.7-2.3 17.5-12.3 22.9-8.5 4.5-15.9 0.5-17.9-0.8 1.4 5.3 4.7 5.8 9.7 6.9 7.3 1.7 19.6-8.1 22.8-18 3.2-9.9 2.9-28.9 2.9-28.9h-4.5c-0.2 5-0.4 13.3-0.7 17.9z"/>
			</g>
			<path id="&lt;Path&gt;" class="s5" d="m503.8 448.7c0 0 12-0.2 28.3-6.2 16.3-6.1 34.6-19.7 30.7-33-4-13.4-25.2-17.1-33.6-16.2-8.4 0.9-18 3.4-18 3.4 0 0 2 37.6-7.4 52z"/>
			<path id="&lt;Path&gt;" class="s4" d="m495.9 454.2c0 0 10.7-2.3 17.2-10.7 6.5-8.5 8.9-22.2 5.4-31.4-3.4-9.1-22.6 42.1-22.6 42.1z"/>
			<path id="&lt;Path&gt;" class="s5" d="m431.7 366.5c0 0-6.3 30 6 59.4 12.4 29.3 39.3 36.3 58.2 28.3 18.9-8.1 23.4-34.7 23.6-52.4 0.2-17.7-0.3-25.8-0.3-25.8 0 0-63.6 6.2-87.5-9.5z"/>
			<path id="&lt;Path&gt;" class="s4" d="m429.3 358.3c0 0-2.8 9.8 2.9 13.4 5.7 3.6 35.1 20.9 70.1 14.3 19.5-3.7 15.2-9.4 14.9-12.6-0.4-3.1-87.9-15.1-87.9-15.1z"/>
			<path id="&lt;Path&gt;" class="s6" d="m424.6 327.3c0 0 0.8 24.3 4.7 31 3.9 6.6 55.6 26.8 81.8 21.1 26.2-5.7 68.9-29 74.1-46.2 5.2-17.2-8.3-44.2-21-57.2-12.8-12.9-18.3-15.5-18.3-15.5 0 0-31.2 41.5-70 55.3-38.7 13.7-51.3 11.5-51.3 11.5z"/>
			<g id="&lt;Group&gt;">
				<path id="&lt;Path&gt;" class="s6" d="m630.4 388.7c0 0 27.5-10.8 38.4-4.2 11 6.6 19.4 21.9 25.1 45.7 5.8 23.7-11.1 41.1-25.6 40.5-14.5-0.5-12-9.9-17.7-19.6-5.6-9.6-12.6-15.2-13-16.2-0.5-1 6.4-31.4-7.2-46.2z"/>
				<path id="&lt;Path&gt;" class="s6" d="m668.8 384.5c-2.9-1.7-7-2.3-11.5-2.1 5.6 4.1 16.6 14.2 23.7 33.3 10 26.4 5.5 40.4 0.4 45.5-5.1 5.1-15.8 7-20.5 6.5-0.8-0.1-1.6-0.2-2.6-0.3 2 1.9 5 3.2 10 3.3 14.5 0.6 31.4-16.8 25.6-40.5-5.7-23.8-14.1-39.1-25.1-45.7z"/>
			</g>
			<path id="&lt;Path&gt;" class="s6" d="m572.4 456.1c0 0 25.9 7.4 49.9-2.3 24-9.6 38.2-25.6 32.9-45.2-5.3-19.6-15.3-20.2-37.1-20-21.9 0.3-26.3 2.2-26.3 2.2 0 0-0.7 55.1-19.4 65.3z"/>
			<path id="&lt;Path&gt;" class="s4" d="m600.9 362.5c-2.5 26.4-24.2 45.9-48.6 43.6-24.3-2.3-42-25.5-39.5-51.9 2.5-26.4 24.2-45.9 48.6-43.6 24.3 2.3 42 25.6 39.5 51.9z"/>
			<path id="&lt;Path&gt;" class="s4" d="m610.3 417.9c-2.3 23.9-22 41.6-44.1 39.5-22-2.1-38.1-23.2-35.8-47.1 2.2-23.9 21.9-41.6 44-39.5 22.1 2.1 38.1 23.2 35.9 47.1z"/>
			<path id="&lt;Path&gt;" class="s6" d="m604.7 389.4c0 0 1.8-38.7-17.1-60-18.9-21.2-61.9-3.9-69 28-7.1 31.8 8 79.7 27.7 92 19.7 12.3 36.4 0.3 47.6-16.8 11.2-17.1 10.8-43.2 10.8-43.2z"/>
			<g id="&lt;Group&gt;">
				<g id="&lt;Group&gt;">
					<path id="&lt;Path&gt;" class="s5" d="m337.7 281c0 0-15 36.2-18.6 46.5-3.7 10.3-7.6 22-7.5 28.7 0.1 6.7 4.2 15.2 7.4 15.5 3.3 0.3 5.6-1.9 6.1-6.4 0.4-4.5 0.2-6.4 2.5-8.9 2.3-2.5 9.5-7.5 10.4-7.9 0.9-0.4 1.6 3-0.6 6.8-2.1 3.8-6.9 7.2-3.9 11 3 3.8 8.9-0.7 12.1-3.9 3.2-3.2 6.4-8.7 7.7-14.3 1.3-5.6 0.7-17.3 0.7-17.3l26.4-25c0 0-35-4.2-42.7-24.8z"/>
					<path id="&lt;Path&gt;" class="s7" d="m339.3 352.2c0 0-0.4 5.2 9.3 5.4"/>
					<path id="&lt;Path&gt;" class="s7" d="m313.9 347.9c0 0 2.7 10 13.7 8.5"/>
					<path id="&lt;Path&gt;" class="s7" d="m313 361.8c0 0 6.6 5.1 11.5-0.4"/>
					<path id="&lt;Path&gt;" class="s7" d="m326.6 312.1c0 0-0.9 19.9 27.4 18.7"/>
				</g>
				<path id="&lt;Path&gt;" class="s4" d="m345.2 270.2c0 0-7.1 0.2-7.5 10.8-0.5 10.6 8 27 24.4 29.7 16.3 2.7 26.4-7.1 29.4-15.1 3-8-35.2-31.7-46.3-25.4z"/>
				<path id="&lt;Path&gt;" class="s5" d="m363.5 241.3c0 0-17.3 20.8-20.3 31.4-3 10.6 4.5 29.9 23.7 32.3 19.1 2.4 30.5-13.5 30.5-13.5z"/>
				<path id="&lt;Path&gt;" class="s4" d="m373.4 224.6c0 0-12.4 10.4-13.2 27.4-0.9 16.9 14.7 36.4 35.1 34.6 20.3-1.9-5.2-62.8-21.9-62z"/>
			</g>
			<path id="&lt;Path&gt;" class="s4" d="m381.9 237.1c0 0-9.1 10.9-3.9 29.3 5.2 18.3 18.2 28.4 18.2 28.4 0 0 25 36 35.5 41.6 10.6 5.6 29.2 5.8 66.9-9.5 37.7-15.3 52.6-37.7 58.4-49.2 5.8-11.5-28.2-64.5-39.9-72.2-11.7-7.7-27-10.2-38.1-9-11.1 1.2-21.4 3.9-21.4 3.9z"/>
			<path id="&lt;Path&gt;" class="s6" d="m375.2 231.1c0 0-9.1 10.9-3.9 29.2 5.2 18.4 18.2 28.5 18.2 28.5 0 0 25 36 35.5 41.6 10.6 5.6 29.2 5.8 66.9-9.5 37.7-15.3 52.6-37.7 58.4-49.3 5.8-11.5-28.2-64.5-39.9-72.2-11.7-7.7-27-10.2-38.1-8.9-11.1 1.2-21.4 3.9-21.4 3.9z"/>
			<path id="&lt;Path&gt;" class="s4" d="m467.6 188.8c3.4 31.2-19.2 59.4-50.5 62.7-31.3 3.4-59.4-19.2-62.8-50.4-3.4-31.3 19.2-59.4 50.5-62.8 31.3-3.4 59.4 19.2 62.8 50.5z"/>
			<path id="&lt;Path&gt;" class="s8" d="m466.7 173.1c3.9 35.3-21.6 67.1-57 70.9-35.3 3.9-67-21.7-70.9-57-3.8-35.3 21.7-67.1 57-70.9 35.4-3.8 67.1 21.7 70.9 57z"/>
			<g id="&lt;Group&gt;">
				<path id="&lt;Path&gt;" class="s9" d="m446.9 189.2c0.7-1.4 1.5-3.7 1.3-6.8-0.4-4.8-5.8-13.8-8.1-16.2-2.2-2.4-5.7 0.5-5.7 0.5l-4-7.2c-9.6-17.3-31.5-23.6-48.8-13.9-17.4 9.6-23.6 31.5-13.9 48.8l8.2 14.9-4.6-7.5c0 0-4.2 1.4-3.4 4.6 0.9 3.2 5.6 12.5 9.5 15.4 2.8 2 5.5 2.4 6.9 2.5l10.9 19.7c4.8 0.5 9.6 0.6 14.5 0 21.7-2.3 39.6-15.2 49.4-32.9z"/>
				<path id="&lt;Path&gt;" class="s6" d="m430.1 171.2c-7.3-13.1-23.8-17.8-36.9-10.5l-4.9 2.7c-13.1 7.3-17.8 23.8-10.5 36.9l24.5 44.1q3.7 0 7.4-0.4c19.2-2.1 35.5-12.4 45.8-27.1z"/>
				<path id="&lt;Path&gt;" class="s10" d="m399.9 197.9c0.9 1.7 0.9 3.5-0.1 4-1 0.6-2.6-0.3-3.5-2-0.9-1.6-0.9-3.4 0.1-4 1-0.5 2.6 0.3 3.5 2z"/>
				<path id="&lt;Path&gt;" class="s10" d="m420.2 186.6c1 1.6 0.9 3.4-0.1 4-1 0.6-2.6-0.3-3.5-2-0.9-1.7-0.8-3.4 0.2-4 1-0.6 2.5 0.3 3.4 2z"/>
				<path id="&lt;Path&gt;" class="s7" d="m410.3 189.3l10.4 13-9.5 4.3"/>
				<path id="&lt;Path&gt;" class="s10" d="m425.8 213c0.9 1.7 0.3 3.7-1.4 4.6-1.6 1-3.7 0.4-4.6-1.3-0.9-1.6-0.3-3.7 1.3-4.6 1.7-0.9 3.7-0.3 4.7 1.3z"/>
				<path id="&lt;Path&gt;" class="s7" d="m385.8 195.6c0 0 1.5-6.4 9.9-6.9"/>
				<path id="&lt;Path&gt;" class="s7" d="m408.8 180.9c0 0 2.2-6.7 11.1-4.8"/>
				<path id="&lt;Path&gt;" class="s7" d="m414.8 234.5c0 0 7.1 2 12 1.1 5-1 9-3.6 10.9-6.1 1.9-2.4 4.4-10.2 4.4-10.2"/>
			</g>
			<path id="&lt;Path&gt;" class="s6" d="m355.4 217.2c-3.8-35.3 21.7-67 57.1-70.9 20.4-2.2 39.6 5.4 52.9 19-7.3-31.2-36.9-52.7-69.6-49.2-35.3 3.8-60.8 35.6-57 70.9 1.6 14.9 8.3 28.1 18 38q-0.9-3.8-1.4-7.8z"/>
			<g id="&lt;Group&gt;">
				<path id="&lt;Path&gt;" class="s4" d="m534.2 219.5c2 18-9.4 33.9-25.3 35.6-15.9 1.8-30.3-11.4-32.3-29.4-1.9-17.9 9.4-33.9 25.3-35.6 15.9-1.8 30.4 11.4 32.3 29.4z"/>
				<path id="&lt;Path&gt;" class="s6" d="m572.1 196.7c0 0-15.6-4.2-40.9-4.8-25.3-0.6-40.1 1.9-44.9 14.4-4.8 12.6-3.7 32.9 11.8 39.7 8.7 3.7 21.5 1.5 30.8-0.6 9.3-2.1 32.1-11.6 39.2-23 7.2-11.4 7.3-20.4 4-25.7z"/>
				<path id="&lt;Path&gt;" class="s4" d="m598.5 216c0 0-8.3-15.1-23.9-19.3-15.6-4.1-29.9 6.1-36.4 16-6.5 10-3.6 13.3-3.6 13.3 0 0 22.9-11.4 34.7-13.6 11.8-2.1 29.2 3.6 29.2 3.6z"/>
				<path id="&lt;Path&gt;" class="s6" d="m534.1 236.2c0 0-3.7-10.6 11.1-24.2 14.7-13.7 41.9-8.8 50.7 0.4 8.8 9.1 7.8 25.2 0.8 32.9-7 7.8-14 10.2-14 10.2 0 0-13.8-23.4-48.6-19.3z"/>
				<path id="&lt;Path&gt;" class="s6" d="m521.7 256.8c0 0 5.7-14.9 12.4-20.6 6.6-5.8 26.5-8.2 41.4-3.1 14.8 5.1 12.2 22.2 9.4 27.5-2.8 5.4-11.3 9.7-11.3 9.7z"/>
				<g id="&lt;Group&gt;">
					<path id="&lt;Path&gt;" class="s6" d="m523.4 254.4c0 0-3 0.6-6 3.8-3 3.1-4 4.6-10.1 8-6 3.5-12.5 3.6-10.1 10.1 2.4 6.5 11.3 5.5 15.6 4.5 4.4-1.1 6.2-2.7 9.6-5.3 3.3-2.6 5.9-20.5 6-21.4 0.2-0.8-5 0.3-5 0.3z"/>
					<path id="&lt;Path&gt;" class="s6" d="m539.3 248.5c0 0-8.9-2.1-13.3 1.4-4.4 3.6-4 17.3-3.6 25.6 0.3 8.4 3.3 15.1 6.5 16.1 3.2 1.1 6.5 0.5 7.7-0.8 1.3-1.3 0-13.4 0.9-23.3 0.8-9.9 1.8-19 1.8-19z"/>
					<path id="&lt;Path&gt;" class="s6" d="m539.3 248.5c0 0-4 9.7-5.1 19.6-1.2 9.9 4.2 23.4 6.3 24.5 2.1 1.2 7.9 0.8 9.3-2.1 1.3-3 0.3-13 0.5-18.9 0.1-5.8 3-18.5 2.5-22.3-0.4-3.9-9.1-4.4-13.5-0.8z"/>
					<path id="&lt;Path&gt;" class="s6" d="m552.8 249.3c0 0 5.4-2.6 9.2-0.5 3.9 2.1 4.8 7.9 4.3 10.8-0.5 2.8-2.3 19.8-3.6 23.9-1.2 4-4.4 6.1-6.9 5.8-2.6-0.3-4.3-3.5-4.7-7.1-0.4-3.6-0.8-10.6-0.8-10.6z"/>
					<path id="&lt;Path&gt;" class="s6" d="m566.3 254.2c0 0 7.2 1.8 9.3 3.2 2.1 1.5 2.9 6.2 1.4 13.3-1.4 7.2-3.5 11.3-6.8 11.7-3.3 0.4-6-3.8-6-6.4 0-2.5 2.7-15.9 2.1-21.8z"/>
				</g>
			</g>
			<path id="&lt;Path&gt;" class="s4" d="m471.4 259.7c4.5 7.2 2.9 16.4-3.6 20.4-6.5 4-15.4 1.3-19.9-6-4.5-7.2-2.9-16.4 3.6-20.4 6.5-4 15.3-1.3 19.9 6z"/>
			<path id="&lt;Path&gt;" class="s10" d="m435.9 284.1c3.2 5.1 2 11.5-2.5 14.3-4.5 2.9-10.7 1-13.9-4.1-3.2-5.1-2-11.5 2.5-14.3 4.5-2.8 10.8-1 13.9 4.1z"/>
			<path id="&lt;Path&gt;" class="s8" d="m464.9 296.3c3.2 5.1 2.1 11.5-2.5 14.3-4.5 2.8-10.7 1-13.9-4.1-3.1-5.1-2-11.5 2.5-14.3 4.5-2.8 10.8-1 13.9 4.1z"/>
		</g>
	</g>
</svg>