<svg id="Group_1881" data-name="Group 1881" xmlns="http://www.w3.org/2000/svg" xmlns:xlink="http://www.w3.org/1999/xlink" width="193.987" height="54.773" viewBox="0 0 193.987 54.773">
  <defs>
    <clipPath id="clip-path">
      <rect id="Rectangle_696" data-name="Rectangle 696" width="193.987" height="54.773" fill="none"/>
    </clipPath>
  </defs>
  <g id="Group_1880" data-name="Group 1880" clip-path="url(#clip-path)">
    <path id="Path_1217" data-name="Path 1217" d="M14.666,25.335l0,0a3.017,3.017,0,0,0,0,4.264L37.78,52.722A27.384,27.384,0,0,1,11.493,5.088L35.84,29.435a3.018,3.018,0,0,0,4.268-4.268L16.992,2.05A27.384,27.384,0,0,1,43.279,49.684L18.93,25.335a3.016,3.016,0,0,0-4.264,0" transform="translate(0 0)" fill="#bf0" fill-rule="evenodd"/>
    <path id="Path_1218" data-name="Path 1218" d="M196.821,61.074H171.749l-.413-.724,14.888-21.763H173.973l2.947-7.186h22.487l.362.724L185.087,53.889h14.681Z" transform="translate(-104.255 -19.107)" fill="#fff"/>
    <path id="Path_1219" data-name="Path 1219" d="M266.615,60.272c-11.269,0-18.041-6.876-18.041-16.284,0-9.461,6.772-16.284,16.49-16.284,9.15,0,16.077,6.876,16.077,16.336v2.223H257.672c.724,4.653,3.825,7.134,9.046,7.134a13.425,13.425,0,0,0,9.409-3.464l4.807,5.118a20.478,20.478,0,0,1-14.319,5.221m-8.685-19.747h14.061c-.931-3.671-3.36-5.841-7.031-5.841-3.618,0-6.1,2.171-7.03,5.841" transform="translate(-151.252 -16.857)" fill="#fff"/>
    <path id="Path_1220" data-name="Path 1220" d="M349,59.87h-8.53V30.2h8.116v3.619a12.645,12.645,0,0,1,9.719-4.394c6.1,0,10.649,4.187,10.649,11.011V59.87h-8.581V43.018c0-4.394-2.481-6.048-5.583-6.048A5.712,5.712,0,0,0,349,42.5Z" transform="translate(-207.167 -17.903)" fill="#fff"/>
    <path id="Path_1221" data-name="Path 1221" d="M433.517,11.077h-8.685V4.2h8.685Zm-.1,33.446h-8.529V14.851h8.529Z" transform="translate(-258.502 -2.557)" fill="#fff"/>
    <path id="Path_1222" data-name="Path 1222" d="M467.14,19.949V42.436h-8.53V19.949H455.2V12.764h3.412v-1.4c0-9.357,6.514-10.6,12.355-10.6v7.34c-2.171,0-3.826.517-3.826,3.929v.724h3.36v7.186Z" transform="translate(-276.979 -0.469)" fill="#fff"/>
  </g>
</svg>
